# xmcd
#
# Track frame offsets:
#	150
#	16847
#	33416
#	43511
#	58791
#	82062
#	96959
#	109882
#	128088
#	139748
#	158072
#	171882
#
# Disc length: 2599 seconds
#
# Revision: 0
# Processed by: cddbd v1.5.1PL0 Copyright (c) Steve Scherf et al.
# Submitted via: dBpowerAMP V4.0
#
DISCID=9b0a250c
DTITLE=Al Perry and the cattle - Losin' Hand
DYEAR=1995
DGENRE=
TTITLE0=Little by Little
TTITLE1=Loserville
TTITLE2=Off and Running
TTITLE3=Sound of a Teardrop
TTITLE4=Losin' Hand
TTITLE5=Twisted
TTITLE6=Pow!
TTITLE7=Another Sad Song
TTITLE8=Hit Over the Head
TTITLE9=Dreaming
TTITLE10=The Only Thing That Hurts Now is the Pain
TTITLE11=Sour Grapes
EXTD=
EXTT0=
EXTT1=
EXTT2=
EXTT3=
EXTT4=
EXTT5=
EXTT6=
EXTT7=
EXTT8=
EXTT9=
EXTT10=
EXTT11=
PLAYORDER=
